<?xml version="1.0" standalone="no"?>
<!DOCTYPE svg PUBLIC "-//W3C//DTD SVG 20010904//EN" "http://www.w3.org/TR/2001/REC-SVG-20010904/DTD/svg10.dtd">
<svg class="theme-color" version="1.0" xmlns="http://www.w3.org/2000/svg" viewBox="0 0 843.000000 771.000000">

<g transform="translate(0.000000,771.000000) scale(0.100000,-0.100000)"
fill="currentColor" stroke="none">
<path d="M1414 7679 c-8 -17 -40 -101 -70 -187 -210 -598 -271 -1323 -185
-2177 21 -202 18 -259 -15 -315 -34 -58 -67 -75 -144 -74 -58 0 -80 6 -155 42
-82 39 -100 54 -260 215 -250 250 -376 415 -491 642 -86 171 -123 165 -73 -12
18 -67 157 -381 243 -551 109 -216 323 -426 494 -486 70 -25 329 -224 567
-437 287 -256 526 -523 686 -763 67 -100 79 -125 79 -160 0 -99 43 -293 81
-369 11 -20 15 -37 10 -37 -16 0 -240 69 -331 102 -120 43 -222 93 -276 134
-25 20 -62 38 -80 41 -29 5 -34 3 -34 -15 0 -23 57 -97 121 -158 90 -85 580
-358 767 -428 81 -30 103 -44 177 -111 95 -86 353 -410 361 -453 4 -23 -3 -33
-50 -70 -30 -24 -60 -57 -66 -72 -28 -68 -28 -67 468 -830 516 -792 529 -809
670 -883 38 -20 98 -44 133 -53 35 -9 73 -23 86 -31 15 -10 36 -13 60 -10 56
8 203 61 275 99 133 70 157 101 662 879 257 395 471 731 477 748 15 43 -4 94
-48 130 l-35 29 18 49 c27 71 267 376 369 468 73 67 96 81 174 110 204 76 671
336 770 429 64 60 121 135 121 158 0 18 -5 20 -34 15 -18 -3 -55 -21 -80 -41
-82 -62 -240 -128 -479 -200 -131 -40 -145 -42 -129 -23 33 40 92 291 92 393
0 35 12 60 79 160 126 190 240 324 465 550 285 284 683 613 788 650 177 62
386 271 502 502 89 176 216 464 235 533 26 93 28 144 5 135 -9 -3 -17 -6 -19
-6 -2 0 -26 -47 -54 -105 -101 -213 -243 -399 -496 -652 -160 -161 -178 -176
-260 -215 -75 -36 -97 -42 -155 -42 -82 -1 -113 17 -148 86 -30 59 -31 128 -9
338 68 630 41 1233 -79 1780 -27 119 -142 477 -175 543 -16 30 -25 37 -49 37
-36 0 -36 -1 -10 -75 67 -194 110 -541 110 -885 l0 -195 -38 70 c-21 39 -62
107 -90 152 -52 82 -52 84 -73 230 -28 201 -52 313 -69 313 -16 0 -23 -44 -29
-195 -6 -146 -7 -150 -29 -153 -31 -5 -117 40 -269 141 -204 135 -341 203
-365 179 -18 -18 2 -48 65 -94 34 -26 110 -88 167 -138 58 -51 137 -116 175
-144 193 -144 346 -403 434 -737 93 -349 81 -664 -39 -1069 -114 -380 -395
-908 -669 -1253 -105 -133 -190 -276 -241 -407 -8 -19 -107 -171 -221 -337
-114 -166 -221 -327 -239 -359 -72 -125 -255 -279 -384 -324 l-57 -19 -158
133 c-87 74 -168 139 -179 145 -14 8 -191 11 -585 11 l-565 0 -49 -38 c-26
-22 -100 -82 -163 -136 -132 -112 -123 -110 -240 -38 -92 56 -223 186 -270
267 -19 33 -127 195 -240 360 -132 192 -216 325 -234 370 -39 95 -115 226
-176 305 -368 475 -629 969 -745 1412 -60 232 -69 301 -69 533 0 192 2 220 27
332 89 396 249 690 462 849 39 28 102 80 140 114 39 34 108 92 154 129 111 87
123 99 119 119 -9 44 -148 -16 -357 -156 -202 -136 -290 -175 -305 -136 -3 9
-6 64 -7 122 0 143 -15 229 -35 210 -12 -13 -36 -123 -59 -286 l-26 -173 -51
-82 c-28 -45 -69 -113 -90 -152 l-39 -70 4 265 c7 340 39 592 102 795 13 44
25 83 25 88 0 4 -13 7 -30 7 -23 0 -33 -7 -46 -31z m3137 -5226 c1 -22 -367
-1611 -372 -1605 -5 6 -369 1588 -369 1605 0 9 740 9 741 0z m-757 -1011 c115
-504 212 -925 214 -934 7 -30 -14 -20 -66 30 -35 33 -177 242 -473 697 -232
358 -423 657 -425 665 -2 9 98 100 263 238 147 122 269 222 272 222 4 0 100
-413 215 -918z m1263 692 c147 -124 267 -229 266 -233 -7 -28 -878 -1347 -904
-1369 -37 -32 -59 -45 -64 -40 -3 3 408 1819 420 1856 3 6 6 12 9 12 2 0 125
-102 273 -226z"/>
</g>
</svg>
